<svg xmlns="http://www.w3.org/2000/svg" id="Layer_2" data-name="Layer 1" viewBox="0 0 512 512"><path d="M471.18,325H471V97h-.2c13.124,0,24.2-10.325,24.5-23.446A24.042,24.042,0,0,0,471.18,49H329V29.829C329,19.446,320.169,11,309.774,11H202.226C191.831,11,183,19.446,183,29.829V49H41.205C28.081,49,17,59.325,16.708,72.446A24.042,24.042,0,0,0,40.82,97H41V325h-.18a24,24,0,1,0,0,48H183.305L123.551,492.3a6.006,6.006,0,0,0,5.364,8.7H168.9a5.92,5.92,0,0,0,5.365-3.226L186.213,474H325.787l11.952,23.774A5.92,5.92,0,0,0,343.1,501h39.981a6,6,0,0,0,5.364-8.7L328.7,373H471.18a24,24,0,1,0,0-48ZM195,29.829c0-3.766,3.448-6.829,7.226-6.829H309.774c3.778,0,7.226,3.063,7.226,6.829V49H195ZM28.7,73.082A12.03,12.03,0,0,1,40.82,61H470.9A12.258,12.258,0,0,1,483.3,72.918,12.03,12.03,0,0,1,471.18,85H134a6,6,0,0,0,0,12H459V325H53V97H94a6,6,0,0,0,0-12H41.1A12.258,12.258,0,0,1,28.7,73.082ZM165.191,489h-26.56l58.1-116h26.561Zm71.516-116h38.586L305.9,434H206.1Zm-44.483,89,7.865-16H311.911l7.865,16Zm181.145,27h-26.56l-58.1-116h26.561ZM471.18,361H40.82a12,12,0,1,1,0-24H471.18a12,12,0,1,1,0,24Z"></path><path d="M71,139.537a6,6,0,0,0-6,6V225.2a6,6,0,1,0,12,0V145.537A6,6,0,0,0,71,139.537Z"></path><path d="M71,113.689a6,6,0,0,0-6,6v5.357a6,6,0,0,0,12,0v-5.357A6,6,0,0,0,71,113.689Z"></path><path d="M133,231h21v21c0,3.313,3.687,7,7,7h23c3.313,0,5-3.687,5-7V231h22c3.313,0,5-3.687,5-7V203c0-3.313-1.687-5-5-5H189V174c0-3.313-1.687-5-5-5H161c-3.313,0-7,1.687-7,5v24H133c-3.313,0-7,1.687-7,5v21C126,227.313,129.687,231,133,231Zm5-21h23c3.313,0,5-3.687,5-7V181h11v22c0,3.313,3.687,7,7,7h20v9H184c-3.313,0-7,1.687-7,5v23H166V224c0-3.313-1.687-5-5-5H138Z"></path><path d="M173.888,294.716A83.616,83.616,0,1,0,90.4,211.1,83.646,83.646,0,0,0,173.888,294.716Zm0-155.231A71.616,71.616,0,1,1,102.4,211.1,71.632,71.632,0,0,1,173.888,139.485Z"></path><path d="M415.6,177H366.592a6,6,0,0,0,0,12H415.6a6,6,0,0,0,0-12Z"></path><path d="M278.6,189h61.26a6,6,0,0,0,0-12H278.6a6,6,0,0,0,0,12Z"></path><path d="M415.6,205H317.584a6,6,0,0,0,0,12H415.6a6,6,0,0,0,0-12Z"></path><path d="M278.6,217h12.252a6,6,0,0,0,0-12H278.6a6,6,0,0,0,0,12Z"></path><path d="M415.6,233H362.137a6,6,0,1,0,0,12H415.6a6,6,0,0,0,0-12Z"></path><path d="M278.6,245h56.8a6,6,0,0,0,0-12H278.6a6,6,0,0,0,0,12Z"></path><path d="M415.6,260H317.584a6,6,0,0,0,0,12H415.6a6,6,0,0,0,0-12Z"></path><path d="M278.6,272h12.252a6,6,0,0,0,0-12H278.6a6,6,0,0,0,0,12Z"></path><path d="M317.584,164H415.6a6,6,0,0,0,0-12H317.584a6,6,0,0,0,0,12Z"></path><path d="M278.6,164h12.252a6,6,0,0,0,0-12H278.6a6,6,0,0,0,0,12Z"></path></svg>