<svg xmlns="http://www.w3.org/2000/svg" id="Layer_1" height="512" viewBox="0 0 70 70" width="512"><path d="m7.21875 49.9038086c1.2607422 2.3417969 4.2617188 3.5380859 8.5185547 3.5380859 2.5611572 0 5.5955811-.4568481 8.9572144-1.3344116 2.1877441 9.0028076 5.9698486 14.352478 10.2156372 14.352478.7646484 0 1.5341797-.175293 2.296875-.5258789.1386719-.0654297 3.3896484-1.640625 5.1621094-5.8950195.9781494-1.9299316 1.8214111-4.2836304 2.527771-6.9664307 3.5881348 1.1271973 6.7503052 1.694458 9.362854 1.694458 3.5136719-.0004883 6.0419922-1.0136719 7.3066406-3.0249023 1.0452271-1.6618652 1.0827637-3.883606.1396484-6.4525146 1.0393066-.8720093 1.7148438-2.1622925 1.7148438-3.6202393 0-2.625-2.1347656-4.7602539-4.7597656-4.7602539-.7288818 0-1.4119263.178833-2.0297852.4741211-.4848633-.5591431-1.0039673-1.1263428-1.5567627-1.7021484 6.8143311-6.1893921 9.5697021-11.8464966 7.5465088-15.6040039-.5985718-1.1171875-1.607666-1.9638672-2.9592285-2.557373-.0228271-2.5567627-2.1066284-4.6311035-4.6687012-4.6311035-2.3272705 0-4.2461548 1.7155762-4.5983887 3.9454346-1.6343994.2137451-3.3895874.5647583-5.2419434 1.0493164-2.1889038-8.9974367-5.9804687-14.3433839-10.2426758-14.3433839-4.1256104 0-7.7310181 4.8690186-9.9735107 13.3869629-8.4036255-2.6377564-14.4453125-2.1777344-16.6436767 1.3225097-.9130249 1.4597168-1.0665894 3.2846069-.4769287 5.4234009-.7607422.831543-1.2369385 1.9282227-1.2369385 3.1415405 0 2.5766602 2.0957031 4.6728516 4.671875 4.6728516.3180542 0 .628418-.0330811.928833-.0939331.7947388.9807129 1.6609497 1.9614868 2.5907593 2.930603-6.8149415 6.199585-9.5718995 11.8487549-7.5518189 15.579834zm19.1540527-30.3770142c2.1672363.7758789 4.4024658 1.7282104 6.6838989 2.8544922-1.2992554.6125488-2.5958252 1.2508545-3.8721313 1.9390259-1.3303833.7195435-2.642334 1.491333-3.9384766 2.2827759.2601319-2.4962769.638733-4.8619995 1.126709-7.076294zm17.2851563.8574219c.4202271 2.0596313.751709 4.2388306.9830933 6.5253906-1.0444946-.7231445-2.1212158-1.4470215-3.2572632-2.1659546-1.2477417-.7857666-2.5001831-1.5126343-3.7478027-2.2086182 2.0538329-.8468017 4.0667724-1.562622 6.0219726-2.1508178zm-.1896973 30.0894775c-2.1763306-.7782593-4.40979-1.7284546-6.6782837-2.8475342 1.3201294-.6240845 2.6278076-1.2698975 3.8916626-1.9547729 1.3394165-.717041 2.6422119-1.4810791 3.9210205-2.262146-.2598266 2.4768067-.6410522 4.83844-1.1343994 7.0644531zm3.4817505-19.3908081c1.8717651 1.4623413 3.6063232 2.9683838 5.1959229 4.4987793-1.5814209 1.3362427-3.329895 2.663208-5.2367554 3.9657593.0831909-1.5088501.140625-3.0296021.140625-4.5571899 0-1.3447876-.0405884-2.640564-.0997925-3.9073487zm-6.633606-4.6478271c1.6138306 1.0212402 3.131897 2.0535889 4.5424805 3.0737915.1217651 1.7349854.190918 3.5686646.190918 5.4813843 0 1.9931641-.0814209 3.9822388-.2266846 5.9318237-1.6329956 1.0427246-3.3363037 2.0497437-5.0897217 2.9885864-1.6798706.9102173-3.4279175 1.7647095-5.1959839 2.55896-1.7138672-.9128418-3.3953247-1.8779297-4.9954224-2.8861084-1.5725098-.9883423-3.0952759-2.0289307-4.5511475-3.0910034-.1218872-1.7470093-.19104-3.5876465-.19104-5.5022583 0-1.9832764.0814209-3.9621582.2265015-5.9022827 1.663147-1.0564575 3.3757935-2.0708008 5.1084595-3.0073853 1.7025757-.918335 3.4412231-1.7653198 5.1776733-2.5409546 1.6569825.8800659 3.3371583 1.8455811 5.0039673 2.8954468zm-17.4161987 12.4824219c-1.8901978-1.4750366-3.6242676-2.9799805-5.1959229-4.4972534 1.6074219-1.3539429 3.3557129-2.6800537 5.2357788-3.9619141-.0829468 1.5003662-.1402588 3.0125732-.1402588 4.5319214.0000001 1.348999.0408326 2.6519165.1004029 3.9272461zm5.576355 6.3588867c1.2062378.7597656 2.4638062 1.487915 3.737793 2.1976929-2.0345459.836731-4.0481567 1.5497437-6.0224609 2.1422119-.4187622-2.0541992-.7503052-4.2304077-.9822388-6.5164795 1.0653076.7424316 2.1503296 1.4744263 3.2669067 2.1765747zm12.0927734 13.8901367c-.0126953.0234375-.0234375.0473633-.0332031.0717773-1.4609375 3.5361328-4.1601562 4.8764648-4.1728516 4.8828125-.4970703.2280273-.9726562.3388672-1.453125.3388672-3.1755981 0-6.3860474-5.0298462-8.2886353-12.8847656 2.5641479-.7623901 5.1937866-1.7266235 7.8421021-2.883728 2.9000854 1.508728 5.7623901 2.7588501 8.5356445 3.7384033-.6813964 2.6184692-1.4928588 4.8945313-2.4299316 6.7366333zm19.303711-8.4887695c-1.6452637 2.6141357-7.1645508 2.7678833-14.5007324.4470215.6377563-2.8234253 1.0991821-5.8596802 1.368103-9.0576782 2.5228882-1.6515503 4.8092041-3.3526001 6.8275146-5.0685425.5269165.5467529 1.0206299 1.0845337 1.4824829 1.6141968-.7003174.8294678-1.1392822 1.8875122-1.1392822 3.0567017 0 2.6191406 2.1308594 4.75 4.75 4.75.4391479 0 .8563232-.0789185 1.2603149-.1904907.4954835 1.4453734.7622071 3.1605834-.0484008 4.4487914zm1.5478515-9.0083008c0 1.5166016-1.2382812 2.75-2.7597656 2.75-1.5166016 0-2.75-1.2333984-2.75-2.75 0-1.5219727 1.2333984-2.7602539 2.75-2.7602539 1.5214844 0 2.7597656 1.2382812 2.7597656 2.7602539zm-.5615234-20.6455078c1.491394 2.7688599-1.3303223 7.9142456-7.1987305 13.2401123-2.06073-1.9957275-4.3623657-3.9492188-6.8743896-5.8215942-.2397461-3.0378418-.6445312-5.9212646-1.1994629-8.6056519 1.7471924-.4595337 3.3983765-.7954102 4.9331055-1.0024414.5584106 1.9554443 2.3413696 3.3995361 4.4732666 3.3995361 1.8792114 0 3.4929199-1.1216431 4.2341309-2.7252808.7488403.3921509 1.3002319.8968506 1.63208 1.5153199zm-5.8662109-6.1352539c1.4736328 0 2.6728516 1.1987305 2.6728516 2.6723633s-1.1992188 2.6728516-2.6728516 2.6728516-2.671875-1.1992188-2.671875-2.6728516 1.1982421-2.6723633 2.671875-2.6723633zm-20.0830079-9.3486328c3.1934814 0 6.4147339 5.0300293 8.3179932 12.8852539-2.5345459.755127-5.1640625 1.7221069-7.8418579 2.8925781-2.9213867-1.5200806-5.7892456-2.7740479-8.5515137-3.749939 1.9405518-7.439331 4.9990235-12.027893 8.0753784-12.027893zm-26.3310546 21.274414c0-1.4736328 1.1982422-2.6728516 2.671875-2.6728516s2.6728516 1.1992188 2.6728516 2.6728516-1.1992188 2.6728516-2.6728516 2.6728516-2.671875-1.1992188-2.671875-2.6728516zm2.671875-4.6728515c-.5900269 0-1.1495361.121521-1.6697388.3220215-.2407837-1.2714233-.1079712-2.3302002.4060669-3.1520996 1.6386719-2.6088867 7.1511841-2.7556152 14.4815063-.4362183-.6300659 2.8042603-1.0888672 5.8430786-1.3596802 9.0663452-2.4830933 1.6195068-4.7706299 3.3189087-6.8305054 5.0646973-.7905273-.8205566-1.536499-1.6483154-2.2250366-2.4766235 1.1286011-.8538208 1.8702393-2.1942139 1.8702393-3.715271 0-2.5766602-2.0966797-4.6728516-4.6728515-4.6728516zm4.9371948 13.5950317c2.0332642 1.9746094 4.3356934 3.9282227 6.8751831 5.8207397.2404785 3.0432129.6453857 5.9275513 1.1997681 8.6078491-7.8146973 2.0505981-13.7700195 1.6016846-15.2846069-1.2111206-1.5092164-2.7893676 1.2514037-7.8123779 7.2096557-13.2174682z"></path><path d="m34.9267578 40.0776367c2.9199219 0 5.2949219-2.3754883 5.2949219-5.2954102 0-2.9194336-2.375-5.2949219-5.2949219-5.2949219s-5.2949219 2.3754883-5.2949219 5.2949219c0 2.9199219 2.375 5.2954102 5.2949219 5.2954102zm0-8.590332c1.8164062 0 3.2949219 1.4780273 3.2949219 3.2949219s-1.4785156 3.2954102-3.2949219 3.2954102-3.2949219-1.4785156-3.2949219-3.2954102 1.4785157-3.2949219 3.2949219-3.2949219z"></path></svg>