<svg xmlns="http://www.w3.org/2000/svg" id="Layer_1" viewBox="0 0 512 512" data-name="Layer 1"><path d="m115 160.321a6 6 0 0 0 -6 6v88.642a6 6 0 1 0 12 0v-88.642a6 6 0 0 0 -6-6z"></path><path d="m115 131.207a6 6 0 0 0 -6 6v6.034a6 6 0 0 0 12 0v-6.034a6 6 0 0 0 -6-6z"></path><path d="m428.562 305.831a29.143 29.143 0 0 0 -3.866-33.618 29.378 29.378 0 0 0 6.4-50.86 30.135 30.135 0 0 0 .419-47.707 28.01 28.01 0 0 0 -16.487-50.646h-14.028v-1h.528c26.824 0 44.472-20.085 44.472-51.714v-.9a6.62 6.62 0 0 0 -6.316-6.386h-38.684v-10.991a20.634 20.634 0 0 0 -3.165-41.009h-81.235a20.745 20.745 0 0 0 -20.756 20.667 20.443 20.443 0 0 0 17.156 20.342v10.991h-36.462c-18.862 0-31.8 8.261-39.56 24.858a54.6 54.6 0 0 1 -48.862 31.142h-39.116v-16.092a5.909 5.909 0 0 0 -5.908-5.908h-93.335a5.756 5.756 0 0 0 -5.757 5.757v214.964a6.3 6.3 0 0 0 6.279 6.279h92.442a6.3 6.3 0 0 0 6.279-6.279v-29.721h47.05a125.038 125.038 0 0 1 65.944 18.521 83.212 83.212 0 0 0 15.227 7.371 110.548 110.548 0 0 0 77.154 187.073q1.418.036 2.829.035a110.4 110.4 0 0 0 71.358-195.169zm4.922-230.831c-1.4 18-10.323 35-31.956 35h-.528v-35zm-125.612-43.5a8.568 8.568 0 0 1 8.728-8.5h81.234a8.5 8.5 0 1 1 0 17h-81.234a8.568 8.568 0 0 1 -8.728-8.5zm81.128 20.5v71h-58.95a12.341 12.341 0 0 1 -5.05-1.081v-69.919zm-120.693 244.316a137.033 137.033 0 0 0 -72.257-20.316h-47.05v-88a6 6 0 0 0 -12 0v124h-81v-203h81v39a6 6 0 0 0 12 0v-17h39.116a65.982 65.982 0 0 0 59.733-38.048c3.862-8.262 10.613-17.952 28.689-17.952h36.462v32.088a6.072 6.072 0 0 0 -1.653-.049 5.932 5.932 0 0 0 -5.311 6.545 24.042 24.042 0 0 0 24.014 21.416h84.978a16 16 0 1 1 0 32h-34.642a6 6 0 1 0 0 12h32.393a18.5 18.5 0 0 1 0 37h-32.393a6 6 0 0 0 -6 6 6.1 6.1 0 0 0 6.11 6h33.015c9.661 0 17.52 7.376 17.52 17s-7.859 17-17.52 17h-47.759a6 6 0 1 0 0 12h37.028a17.5 17.5 0 0 1 0 35h-68.53c-23.76 0-46.681-.768-65.943-12.684zm187.936 94.164a97.513 97.513 0 0 1 -29.7 70.311 98.556 98.556 0 0 1 -69.343 28.209c-.839 0-1.683-.01-2.525-.031a99.141 99.141 0 0 1 -94.993-81.381c1.232.1 2.463.16 3.7.16h.57c17.166-.217 26.12-5.3 34.022-9.784 7.6-4.316 14.171-8.043 28.25-8.221 14.049-.189 20.737 3.382 28.449 7.5 8.011 4.282 17.063 9.128 34.259 8.921 17.168-.217 26.123-5.3 34.024-9.784 7.605-4.316 14.172-8.043 28.254-8.221a34.994 34.994 0 0 1 5.013.3c.005.674.02 1.347.02 2.021zm-5.194-14.318c-17.168.216-26.123 5.3-34.025 9.783-7.6 4.316-14.171 8.043-28.253 8.222-.338 0-.671.006-1 .006-13.4 0-19.921-3.488-27.448-7.511-8.012-4.284-17.079-9.158-34.259-8.921-17.166.217-26.12 5.3-34.021 9.784-7.6 4.316-14.171 8.043-28.25 8.221a32.664 32.664 0 0 1 -5.476-.407c-.038-.785-.095-1.567-.115-2.355a98.192 98.192 0 0 1 32.321-75.294c14.031 3 28.742 3.31 43.729 3.31h68.53a29.385 29.385 0 0 0 17.931-6.075 97.966 97.966 0 0 1 34.518 61.4c-1.391-.11-2.784-.178-4.182-.163z"></path></svg>